<svg xmlns="http://www.w3.org/2000/svg" width="147" height="148" viewBox="0 0 147 148">
    <defs>
        <linearGradient id="a" x1="0%" x2="0%" y1="-84.993%" y2="183.019%">
            <stop offset="0%" stop-color="#E8FF54"/>
            <stop offset="100%" stop-color="#8CD334"/>
        </linearGradient>
        <linearGradient id="b" x1="0%" x2="0%" y1="-84.993%" y2="183.019%">
            <stop offset="0%" stop-color="#E8FF54"/>
            <stop offset="100%" stop-color="#8CD334"/>
        </linearGradient>
        <linearGradient id="c" x1="0%" x2="0%" y1="-84.993%" y2="183.019%">
            <stop offset="0%" stop-color="#E8FF54"/>
            <stop offset="100%" stop-color="#8CD334"/>
        </linearGradient>
        <linearGradient id="d" x1="0%" x2="0%" y1="-84.993%" y2="183.019%">
            <stop offset="0%" stop-color="#E8FF54"/>
            <stop offset="100%" stop-color="#8CD334"/>
        </linearGradient>
    </defs>
    <g fill="none" fill-rule="evenodd">
        <path fill="url(#a)" d="M119.239 57.92c8.567 0 15.275 7.032 15.275 16.018 0 8.979-6.708 16.013-15.275 16.013-4.949 0-8.447-1.534-12.412-5.419L96.174 73.938 106.76 63.4c4.032-3.945 7.53-5.48 12.479-5.48m0-11.977c-9.372 0-15.708 3.86-20.853 8.902L79.867 73.938l18.52 19.084c5.144 5.047 11.48 8.906 20.852 8.906 15.46 0 27.252-12.532 27.252-27.99 0-15.464-11.792-27.995-27.252-27.995"/>
        <path fill="url(#b)" d="M27.248 57.92c4.952 0 8.45 1.535 12.414 5.415L50.32 73.938l-10.597 10.53c-4.025 3.949-7.522 5.483-12.474 5.483-8.565 0-15.271-7.034-15.271-16.013 0-8.986 6.706-16.019 15.27-16.019m0-11.976C11.79 45.943 0 58.473 0 73.938c0 15.458 11.79 27.99 27.248 27.99 9.375 0 15.709-3.86 20.858-8.906l18.515-19.084-18.515-19.093c-5.15-5.042-11.483-8.902-20.858-8.902"/>
        <path fill="url(#c)" d="M73.247 96.86l10.53 10.594c3.947 4.037 5.483 7.528 5.483 12.478 0 8.709-6.884 15.275-16.015 15.275-9.126 0-16.011-6.566-16.011-15.275 0-4.95 1.536-8.452 5.415-12.415L73.247 96.86zm-.002-16.306c-1.625 0-19.09 18.52-19.09 18.52-5.04 5.153-8.898 11.48-8.898 20.858 0 15.461 12.52 27.247 27.988 27.247 15.46 0 27.992-11.786 27.992-27.247 0-9.378-3.86-15.705-8.906-20.857L73.245 80.554z"/>
        <path fill="url(#d)" d="M73.247 12.665c8.979 0 16.016 6.71 16.016 15.27 0 4.957-1.538 8.455-5.427 12.419l-10.59 10.653-10.535-10.59c-3.944-4.024-5.477-7.525-5.477-12.482 0-8.708 6.885-15.27 16.013-15.27m0-11.975c-15.468 0-27.99 11.789-27.99 27.245 0 9.384 3.858 15.716 8.899 20.863l19.09 18.519 19.083-18.52c5.045-5.146 8.908-11.478 8.908-20.862C101.237 12.479 88.706.69 73.247.69"/>
    </g>
</svg>
