<svg xmlns="http://www.w3.org/2000/svg" width="91" height="91" viewBox="0 0 91 91">
    <g fill="none" fill-rule="evenodd">
        <path fill="#005029" d="M72.824 35.374c5.232 0 9.329 4.295 9.329 9.783 0 5.484-4.097 9.78-9.33 9.78-3.021 0-5.158-.938-7.58-3.31l-6.506-6.47 6.465-6.436c2.463-2.41 4.6-3.347 7.622-3.347m0-7.315c-5.724 0-9.594 2.358-12.736 5.437l-11.31 11.66 11.31 11.656c3.142 3.082 7.012 5.44 12.736 5.44 9.442 0 16.644-7.655 16.644-17.095 0-9.445-7.202-17.098-16.644-17.098"/>
        <path fill="#71B844" d="M16.641 35.374c3.025 0 5.16.938 7.582 3.307l6.509 6.476-6.472 6.43c-2.458 2.412-4.594 3.35-7.619 3.35-5.23 0-9.326-4.296-9.326-9.78 0-5.488 4.095-9.783 9.326-9.783m0-7.315C7.201 28.059 0 35.712 0 45.157c0 9.44 7.2 17.094 16.641 17.094 5.726 0 9.594-2.357 12.74-5.439l11.307-11.655-11.308-11.66c-3.145-3.08-7.013-5.438-12.739-5.438"/>
        <path fill="#009949" d="M44.735 59.156l6.43 6.47c2.411 2.466 3.35 4.598 3.35 7.62 0 5.32-4.205 9.33-9.781 9.33-5.574 0-9.78-4.01-9.78-9.33 0-3.022.94-5.16 3.308-7.581l6.473-6.509zm-.001-9.959c-.993 0-11.66 11.312-11.66 11.312-3.078 3.146-5.434 7.01-5.434 12.738 0 9.443 7.647 16.641 17.094 16.641 9.442 0 17.095-7.198 17.095-16.641 0-5.728-2.357-9.592-5.439-12.738L44.734 49.197z"/>
        <path fill="#ABCC3A" d="M44.735 7.735c5.483 0 9.781 4.098 9.781 9.326 0 3.027-.939 5.164-3.314 7.585l-6.467 6.506-6.435-6.468c-2.409-2.457-3.345-4.596-3.345-7.623 0-5.318 4.205-9.326 9.78-9.326m0-7.314c-9.447 0-17.095 7.2-17.095 16.64 0 5.73 2.356 9.598 5.435 12.741l11.66 11.31 11.654-11.31c3.081-3.143 5.44-7.01 5.44-12.741 0-9.44-7.653-16.64-17.094-16.64"/>
    </g>
</svg>
