<svg width="163" height="163" viewBox="0 0 163 163" fill="none" xmlns="http://www.w3.org/2000/svg">
    <path d="M81.5179 0C36.4968 0 0 36.4968 0 81.5179C0 126.539 36.4968 163.036 81.5179 163.036C126.539 163.036 163.036 126.539 163.036 81.5179C163.036 36.4968 126.503 0 81.5179 0ZM118.695 107.485C121.74 110.529 121.74 115.651 118.695 118.695C115.651 121.74 110.529 121.74 107.485 118.695L81.5179 92.7284L55.5153 118.695C52.4709 121.74 47.3492 121.74 44.3048 118.695C41.2604 115.651 41.2604 110.529 44.3048 107.485L70.2716 81.5179L44.3048 55.5153C41.2604 52.4709 41.2604 47.3492 44.3048 44.3048C47.3492 41.2604 52.4709 41.2604 55.5153 44.3048L81.4821 70.2716L107.449 44.3048C110.493 41.2604 115.615 41.2604 118.659 44.3048C121.704 47.3492 121.704 52.4709 118.659 55.5153L92.6926 81.4821L118.695 107.485Z"
          fill="#E41F13"/>
</svg>
